# xmcd CD database file
#
# Track frame offsets:
#	150
#	20059
#	37178
#	51188
#
# Disc length: 1055 seconds
#
# Revision: 0
# Processed by: cddbd v1.5.1PL0 Copyright (c) Steve Scherf et al.
# Submitted via: CDex 1.51
#
DISCID=33041d04
DTITLE=Queensryche - Queensryche
DYEAR=1983
DGENRE=Heavy Metal
TTITLE0=Queen Of The Reich
TTITLE1=Nightrider
TTITLE2=Blinded
TTITLE3=The Lady Wore Black
EXTD=YEAR: 1983
EXTT0=
EXTT1=
EXTT2=
EXTT3=
PLAYORDER=
